<svg xmlns="http://www.w3.org/2000/svg" xmlns:xlink="http://www.w3.org/1999/xlink" width="1080" zoomAndPan="magnify" viewBox="0 0 810 285.749983" height="381" preserveAspectRatio="xMidYMid meet" version="1.0"><path fill="#bf1f3c" d="M 278.792969 141.960938 C 285.871094 108.273438 284.722656 76.589844 280.722656 55.601562 C 252.875 53.179688 202.640625 25.285156 179.726562 10.957031 L 179.726562 141.960938 Z M 278.792969 141.960938 " fill-opacity="1" fill-rule="nonzero"/><path fill="#1e3665" d="M 179.726562 274.601562 C 240.402344 244.085938 268.011719 191.757812 278.5 143.316406 L 179.726562 143.316406 Z M 179.726562 274.601562 " fill-opacity="1" fill-rule="nonzero"/><path fill="#bf1f3c" d="M 79.644531 143.316406 C 90.175781 191.847656 117.8125 244.285156 178.371094 274.777344 L 178.371094 143.316406 Z M 79.644531 143.316406 " fill-opacity="1" fill-rule="nonzero"/><path fill="#1e3665" d="M 178.371094 10.359375 C 156.042969 24.496094 105.398438 53.140625 77.324219 55.605469 C 73.34375 76.589844 72.25 108.273438 79.347656 141.960938 L 178.371094 141.960938 Z M 178.371094 10.359375 " fill-opacity="1" fill-rule="nonzero"/><path fill="#ffffff" d="M 142.148438 100.070312 L 127.167969 100.070312 L 123.535156 92.8125 L 145.78125 92.8125 Z M 144.644531 121.425781 L 125.246094 121.425781 L 125.246094 120.289062 L 130.796875 120.289062 L 130.796875 105.515625 L 128.984375 102.796875 L 140.332031 102.796875 L 138.0625 106.425781 L 138.0625 120.289062 L 144.644531 120.289062 Z M 125.355469 84.1875 C 126.265625 81.914062 134.886719 75.105469 133.984375 67.847656 C 140.152344 71.113281 139.730469 80.105469 138.519531 84.1875 L 141.695312 80.097656 C 143.964844 80.554688 143.511719 86.90625 143.511719 90.089844 L 125.355469 90.089844 Z M 125.355469 84.1875 " fill-opacity="1" fill-rule="nonzero"/><path fill="#ffffff" d="M 220.90625 114.984375 C 221.714844 111.863281 227.203125 103.972656 242.691406 97.4375 L 246.320312 104.394531 C 240.976562 106.3125 229.667969 112.503906 228.21875 119.519531 L 213.339844 119.519531 C 212.449219 116.472656 211.28125 111.796875 196.09375 104.394531 L 199.726562 97.4375 C 205.78125 100.15625 218.484375 107.480469 220.90625 114.984375 M 237.242188 92.648438 C 231.699219 96.28125 221.796875 103.761719 221.207031 107.171875 C 219.796875 104.246094 214.492188 97.25 204.566406 92.648438 C 209.105469 87.710938 221.996094 80.789062 237.242188 92.648438 M 221.511719 69.75 C 225.019531 69.75 227.863281 72.59375 227.863281 76.105469 C 227.863281 79.613281 225.019531 82.453125 221.511719 82.453125 C 217.996094 82.453125 215.15625 79.613281 215.15625 76.105469 C 215.15625 72.59375 217.996094 69.75 221.511719 69.75 " fill-opacity="1" fill-rule="nonzero"/><path fill="#ffffff" d="M 156.859375 209.382812 C 156.644531 208.984375 156.203125 208.496094 155.914062 208.289062 C 155.605469 208.074219 154.625 207.730469 153.730469 207.492188 C 152.820312 207.273438 151.679688 206.890625 151.183594 206.675781 C 150.675781 206.460938 150.078125 206.097656 149.859375 205.878906 C 149.550781 205.570312 149.441406 205.257812 149.441406 204.601562 L 149.441406 203.75 L 154.457031 203.988281 C 153.242188 201.554688 152.984375 200.660156 152.714844 199.152344 C 152.511719 198.023438 152.207031 196.71875 152.039062 196.246094 C 151.859375 195.773438 151.441406 194.992188 151.128906 194.519531 C 150.800781 194.042969 150.246094 193.445312 149.859375 193.195312 C 149.386719 192.867188 148.824219 192.703125 148.003906 192.632812 C 147.222656 192.558594 146.492188 192.59375 145.910156 192.757812 C 145.296875 192.921875 144.769531 193.25 144.257812 193.738281 C 143.859375 194.136719 143.335938 194.882812 143.113281 195.390625 C 142.878906 195.878906 142.53125 196.902344 142.367188 197.667969 C 142.1875 198.40625 141.929688 199.550781 141.824219 200.207031 C 141.695312 200.84375 141.441406 201.714844 141.257812 202.117188 C 141.078125 202.511719 140.75 203.09375 140.550781 203.421875 L 140.183594 204.019531 L 145.277344 203.75 C 145.277344 205.3125 145.1875 205.550781 144.769531 205.929688 C 144.492188 206.183594 143.910156 206.550781 143.492188 206.746094 C 143.078125 206.945312 142.167969 207.234375 141.496094 207.402344 L 140.277344 207.691406 C 139.128906 206.550781 138.570312 206.128906 138.277344 206.023438 C 137.96875 205.894531 137.023438 205.65625 136.1875 205.476562 C 135.332031 205.296875 134.367188 205.023438 134.042969 204.859375 C 133.714844 204.691406 133.296875 204.332031 133.097656 204.058594 C 132.898438 203.785156 132.675781 203.277344 132.625 202.933594 C 132.511719 202.347656 132.585938 202.1875 133.425781 201.207031 C 133.953125 200.605469 134.546875 199.734375 134.765625 199.296875 C 134.988281 198.84375 135.203125 198.023438 135.242188 197.484375 C 135.292969 196.773438 135.222656 196.28125 135.019531 195.847656 C 134.859375 195.480469 134.714844 194.792969 134.714844 194.300781 C 134.730469 193.789062 134.605469 192.976562 134.4375 192.488281 C 134.292969 191.976562 133.988281 191.320312 133.753906 191.027344 C 133.515625 190.722656 132.875 190.230469 132.332031 189.941406 C 131.515625 189.484375 131.113281 189.394531 129.824219 189.355469 C 128.605469 189.300781 128.078125 189.375 127.367188 189.644531 C 126.859375 189.847656 126.1875 190.265625 125.859375 190.554688 C 125.53125 190.867188 125.09375 191.464844 124.875 191.886719 C 124.609375 192.433594 124.496094 192.996094 124.496094 193.84375 C 124.496094 194.625 124.371094 195.296875 124.132812 195.847656 C 123.859375 196.445312 123.785156 196.902344 123.859375 197.574219 C 123.914062 198.0625 124.167969 198.878906 124.425781 199.390625 C 124.679688 199.878906 125.257812 200.734375 125.714844 201.296875 C 126.460938 202.171875 126.554688 202.367188 126.460938 202.933594 C 126.40625 203.277344 126.203125 203.765625 126.019531 204.019531 C 125.84375 204.257812 125.460938 204.640625 125.164062 204.839844 C 124.875 205.042969 123.929688 205.351562 123.09375 205.53125 C 122.242188 205.714844 121.128906 205.984375 120.640625 206.152344 C 120.132812 206.3125 119.445312 206.691406 119.117188 207.003906 C 118.765625 207.308594 118.351562 207.839844 118.183594 208.203125 C 118.003906 208.546875 117.804688 209.074219 117.734375 209.382812 C 117.675781 209.671875 117.589844 210.054688 117.53125 210.238281 C 117.460938 210.546875 118.503906 210.566406 137.367188 210.566406 C 153.152344 210.566406 157.25 210.511719 157.261719 210.328125 C 157.261719 210.203125 157.078125 209.78125 156.859375 209.382812 " fill-opacity="1" fill-rule="nonzero"/><path fill="#ffffff" d="M 137.109375 184.199219 L 134.4375 186.925781 L 144.164062 186.925781 C 147.835938 190.152344 148.816406 190.886719 148.980469 190.828125 C 149.21875 190.757812 149.238281 190.445312 149.144531 188.976562 L 149.019531 187.199219 C 149.980469 187 150.472656 186.777344 150.746094 186.558594 C 151.035156 186.359375 151.382812 185.960938 151.527344 185.648438 C 151.746094 185.214844 151.800781 184.273438 151.800781 180.925781 C 151.800781 177.582031 151.746094 176.636719 151.527344 176.199219 C 151.382812 175.910156 151.035156 175.496094 150.746094 175.296875 C 150.472656 175.078125 150.109375 174.914062 149.925781 174.933594 C 149.636719 174.933594 149.621094 175.242188 149.621094 178.714844 C 149.621094 182.144531 149.582031 182.527344 149.253906 183.074219 C 149.054688 183.382812 148.597656 183.78125 148.253906 183.925781 C 147.746094 184.144531 146.636719 184.199219 142.367188 184.199219 Z M 137.109375 184.199219 " fill-opacity="1" fill-rule="nonzero"/><path fill="#ffffff" d="M 132.382812 173.386719 C 132.511719 173.148438 133.253906 173.113281 138.472656 173.148438 L 138.542969 173.152344 C 144.292969 173.203125 144.4375 173.207031 144.4375 173.566406 C 144.4375 173.929688 144.308594 173.929688 138.566406 173.96875 L 138.527344 173.96875 C 134.949219 174.003906 132.546875 173.949219 132.4375 173.839844 C 132.328125 173.75 132.308594 173.550781 132.382812 173.386719 M 137.433594 177.292969 C 133.675781 177.292969 132.511719 177.238281 132.453125 177.054688 C 132.398438 176.945312 132.453125 176.726562 132.582031 176.617188 L 132.582031 176.601562 C 132.726562 176.433594 133.949219 176.382812 137.417969 176.382812 C 141.398438 176.363281 142.109375 176.402344 142.292969 176.65625 C 142.421875 176.800781 142.492188 177.015625 142.4375 177.109375 C 142.382812 177.21875 140.527344 177.292969 137.433594 177.292969 M 129.390625 181.667969 C 129.675781 181.945312 130.074219 182.253906 130.3125 182.363281 C 130.53125 182.472656 130.878906 182.5625 131.078125 182.5625 C 131.425781 182.5625 131.441406 182.671875 131.40625 184.414062 C 131.351562 186.066406 131.390625 186.289062 131.679688 186.324219 C 131.859375 186.359375 132.898438 185.59375 134.222656 184.46875 L 136.441406 182.5625 C 145.929688 182.5625 146.292969 182.546875 146.859375 182.195312 C 147.167969 181.996094 147.605469 181.5625 147.804688 181.253906 C 148.144531 180.691406 148.167969 180.324219 148.167969 175.800781 C 148.167969 171.953125 148.113281 170.808594 147.914062 170.351562 C 147.765625 170.027344 147.3125 169.535156 146.910156 169.261719 C 145.539062 168.46875 131.871094 168.46875 129.953125 169.226562 C 129.566406 169.464844 129.117188 169.9375 128.949219 170.265625 C 128.679688 170.753906 128.621094 171.476562 128.566406 175.117188 C 128.535156 177.710938 128.566406 179.746094 128.695312 180.289062 C 128.824219 180.871094 129.078125 181.378906 129.390625 181.667969 " fill-opacity="1" fill-rule="nonzero"/><path fill="#ffffff" d="M 218.5 179.816406 C 218.269531 179.816406 217.628906 179.585938 216.382812 179.066406 C 215.398438 178.65625 213.757812 177.960938 212.738281 177.53125 C 211.71875 177.109375 210.832031 176.738281 210.753906 176.710938 C 210.640625 176.667969 210.621094 177.015625 210.613281 180.339844 L 210.597656 184.015625 C 210.949219 184.1875 211.476562 184.386719 211.992188 184.589844 C 212.511719 184.78125 213.367188 185.035156 213.886719 185.167969 C 214.40625 185.289062 215.265625 185.460938 215.78125 185.546875 C 216.464844 185.652344 217.21875 185.695312 218.5 185.695312 C 219.808594 185.695312 220.515625 185.652344 221.21875 185.546875 C 221.738281 185.460938 222.59375 185.289062 223.109375 185.167969 C 223.628906 185.035156 224.394531 184.808594 224.800781 184.664062 C 225.207031 184.523438 225.734375 184.320312 225.972656 184.214844 L 226.402344 184.015625 C 226.402344 178.34375 226.378906 176.695312 226.347656 176.6875 C 226.296875 176.691406 224.597656 177.398438 222.558594 178.25 C 219.816406 179.402344 218.738281 179.816406 218.5 179.816406 " fill-opacity="1" fill-rule="nonzero"/><path fill="#ffffff" d="M 215.328125 175.78125 L 218.539062 177.113281 C 219.886719 176.546875 222.046875 175.632812 224.222656 174.730469 C 226.394531 173.824219 228.320312 173.015625 228.5 172.941406 C 228.75 172.832031 228.800781 172.785156 228.710938 172.734375 C 228.636719 172.691406 226.308594 171.714844 223.539062 170.566406 C 220.78125 169.40625 218.507812 168.460938 218.472656 168.453125 C 218.460938 168.464844 217.421875 168.898438 216.152344 169.425781 C 214.882812 169.960938 212.578125 170.9375 211.023438 171.589844 C 209.472656 172.242188 208.234375 172.804688 208.265625 172.828125 C 208.308594 172.855469 209.179688 173.230469 210.226562 173.65625 C 211.269531 174.09375 213.5625 175.050781 215.328125 175.78125 " fill-opacity="1" fill-rule="nonzero"/><path fill="#ffffff" d="M 225.414062 205.5 C 224.820312 206.980469 224.582031 207.441406 224.441406 207.5625 C 224.320312 207.691406 224.140625 207.828125 224.03125 207.878906 C 223.90625 207.945312 222.289062 207.96875 218.496094 207.96875 C 214.144531 207.96875 213.105469 207.945312 212.917969 207.851562 C 212.796875 207.796875 212.605469 207.640625 212.488281 207.507812 C 212.375 207.375 212.117188 206.867188 211.910156 206.378906 L 211.539062 205.5 L 197.664062 205.5 L 197.664062 207.183594 C 197.664062 208.230469 197.707031 209.019531 197.769531 209.269531 C 197.832031 209.542969 197.980469 209.773438 198.246094 210.046875 C 198.476562 210.285156 198.738281 210.457031 198.945312 210.515625 C 199.179688 210.582031 204.835938 210.601562 218.496094 210.601562 C 232.164062 210.601562 237.824219 210.582031 238.054688 210.515625 C 238.261719 210.457031 238.523438 210.285156 238.753906 210.046875 C 239.015625 209.773438 239.164062 209.542969 239.226562 209.269531 C 239.289062 209.019531 239.332031 208.230469 239.332031 207.183594 L 239.332031 205.5 Z M 225.414062 205.5 " fill-opacity="1" fill-rule="nonzero"/><path fill="#ffffff" d="M 212.324219 197.105469 L 231.097656 197.105469 L 231.097656 199.738281 L 212.324219 199.738281 Z M 212.324219 191.175781 L 231.097656 191.175781 L 231.097656 193.808594 L 212.324219 193.808594 Z M 209.277344 193.808594 L 205.90625 193.808594 L 205.90625 191.175781 L 209.277344 191.175781 Z M 209.277344 199.738281 L 205.90625 199.738281 L 205.90625 197.105469 L 209.277344 197.105469 Z M 213.332031 203.265625 C 213.464844 203.390625 213.707031 203.855469 213.929688 204.40625 L 214.300781 205.332031 L 222.65625 205.332031 C 223.214844 203.960938 223.441406 203.476562 223.519531 203.359375 C 223.597656 203.246094 223.792969 203.089844 223.96875 203.003906 C 224.242188 202.871094 224.71875 202.863281 230.148438 202.863281 L 236.035156 202.863281 C 236.035156 183.351562 236.027344 183.019531 235.878906 182.714844 C 235.789062 182.546875 235.617188 182.308594 235.484375 182.1875 C 235.359375 182.0625 235.113281 181.90625 234.953125 181.839844 C 234.6875 181.734375 234.183594 181.710938 231.839844 181.710938 L 229.039062 181.710938 C 229.039062 184.636719 229.007812 185.15625 228.921875 185.355469 C 228.867188 185.496094 228.726562 185.699219 228.621094 185.796875 C 228.511719 185.898438 228.066406 186.144531 227.636719 186.339844 C 227.210938 186.550781 226.488281 186.847656 226.03125 187.015625 C 225.578125 187.183594 224.769531 187.445312 224.222656 187.59375 C 223.679688 187.746094 222.773438 187.941406 222.207031 188.042969 C 221.636719 188.140625 220.566406 188.261719 219.816406 188.308594 C 218.777344 188.386719 218.144531 188.386719 217.140625 188.308594 C 216.417969 188.253906 215.472656 188.15625 215.046875 188.082031 C 214.617188 188.015625 213.886719 187.867188 213.4375 187.761719 C 212.984375 187.65625 212.167969 187.421875 211.621094 187.242188 C 211.078125 187.058594 210.175781 186.699219 209.609375 186.453125 C 209.039062 186.195312 208.488281 185.898438 208.382812 185.796875 C 208.277344 185.699219 208.136719 185.496094 208.078125 185.355469 C 207.996094 185.15625 207.960938 184.636719 207.960938 183.398438 L 207.960938 181.710938 C 202.660156 181.71875 202.207031 181.734375 201.988281 181.851562 C 201.855469 181.914062 201.640625 182.070312 201.515625 182.195312 C 201.382812 182.308594 201.210938 182.546875 201.121094 182.714844 C 200.972656 183.019531 200.960938 183.351562 200.960938 192.949219 L 200.960938 202.863281 C 211.039062 202.863281 212.789062 202.890625 212.929688 202.953125 C 213.027344 203.003906 213.207031 203.144531 213.332031 203.265625 " fill-opacity="1" fill-rule="nonzero"/><path fill="#000000" d="M 275.011719 166.097656 C 267.472656 189.25 256.414062 210.019531 242.148438 227.828125 C 225.621094 248.453125 204.703125 265.140625 179.988281 277.425781 L 178.84375 277.996094 L 177.707031 277.425781 C 153.125 265.136719 132.316406 248.449219 115.851562 227.824219 C 101.640625 210.015625 90.613281 189.246094 83.078125 166.097656 C 69.417969 124.121094 69.835938 81.304688 74.78125 55.226562 L 75.144531 53.324219 L 77.070312 53.152344 C 103.796875 50.8125 152.566406 23.777344 177.167969 8.175781 L 178.53125 7.308594 L 179.902344 8.171875 C 202.933594 22.695312 253.6875 50.78125 280.910156 53.152344 L 282.84375 53.324219 L 283.203125 55.222656 C 285.617188 67.902344 292.179688 113.351562 275.011719 166.097656 M 285.714844 54.75 L 284.992188 50.941406 L 281.132812 50.605469 C 254.398438 48.277344 204.117188 20.417969 181.269531 6.007812 L 178.527344 4.285156 L 175.796875 6.011719 C 151.386719 21.496094 103.078125 48.304688 76.847656 50.605469 L 72.988281 50.941406 L 72.265625 54.753906 C 67.265625 81.136719 66.839844 124.445312 80.644531 166.886719 C 88.277344 190.332031 99.449219 211.367188 113.847656 229.414062 C 130.550781 250.335938 151.648438 267.257812 176.558594 279.710938 L 178.839844 280.855469 L 181.125 279.71875 C 206.179688 267.269531 227.382812 250.347656 244.144531 229.421875 C 258.605469 211.378906 269.808594 190.339844 277.441406 166.886719 C 294.800781 113.566406 288.164062 67.570312 285.714844 54.75 " fill-opacity="1" fill-rule="nonzero"/><path fill="#1e3665" d="M 275.011719 166.097656 C 267.472656 189.25 256.414062 210.019531 242.148438 227.828125 C 225.621094 248.453125 204.703125 265.140625 179.988281 277.425781 L 178.84375 277.996094 L 177.707031 277.425781 C 153.125 265.136719 132.316406 248.449219 115.851562 227.824219 C 101.640625 210.015625 90.613281 189.246094 83.078125 166.097656 C 69.417969 124.121094 69.835938 81.304688 74.78125 55.226562 L 75.144531 53.324219 L 77.070312 53.152344 C 103.796875 50.8125 152.566406 23.777344 177.167969 8.175781 L 178.53125 7.308594 L 179.902344 8.171875 C 202.933594 22.695312 253.6875 50.78125 280.910156 53.152344 L 282.84375 53.324219 L 283.203125 55.222656 C 285.617188 67.902344 292.179688 113.351562 275.011719 166.097656 M 285.714844 54.75 L 284.992188 50.941406 L 281.132812 50.605469 C 254.398438 48.277344 204.117188 20.417969 181.269531 6.007812 L 178.527344 4.285156 L 175.796875 6.011719 C 151.386719 21.496094 103.078125 48.304688 76.847656 50.605469 L 72.988281 50.941406 L 72.265625 54.753906 C 67.265625 81.136719 66.839844 124.445312 80.644531 166.886719 C 88.277344 190.332031 99.449219 211.367188 113.847656 229.414062 C 130.550781 250.335938 151.648438 267.257812 176.558594 279.710938 L 178.839844 280.855469 L 181.125 279.71875 C 206.179688 267.269531 227.382812 250.347656 244.144531 229.421875 C 258.605469 211.378906 269.808594 190.339844 277.441406 166.886719 C 294.800781 113.566406 288.164062 67.570312 285.714844 54.75 " fill-opacity="1" fill-rule="nonzero"/><path fill="#1e3665" d="M 483.617188 91.519531 L 483.179688 91.519531 L 474.023438 56.511719 L 464.078125 56.511719 L 454.894531 91.449219 L 454.472656 91.449219 L 446.152344 56.511719 L 434.539062 56.511719 L 448.921875 106.792969 L 459.289062 106.792969 L 468.84375 73.917969 L 469.234375 73.917969 L 478.808594 106.792969 L 489.171875 106.792969 L 503.558594 56.511719 L 491.945312 56.511719 Z M 483.617188 91.519531 " fill-opacity="1" fill-rule="nonzero"/><path fill="#1e3665" d="M 557.234375 78.164062 L 556.738281 78.164062 L 545.277344 56.515625 L 533.367188 56.515625 L 551.707031 89.019531 L 551.707031 106.789062 L 562.269531 106.789062 L 562.269531 89.019531 L 580.609375 56.515625 L 568.699219 56.515625 Z M 557.234375 78.164062 " fill-opacity="1" fill-rule="nonzero"/><path fill="#1e3665" d="M 400.371094 86.023438 L 421.882812 86.023438 L 421.882812 77.253906 L 400.371094 77.253906 L 400.371094 65.273438 L 423.621094 65.273438 L 423.621094 56.515625 L 389.742188 56.515625 L 389.742188 106.789062 L 423.71875 106.789062 L 423.71875 98.03125 L 400.371094 98.03125 Z M 400.371094 86.023438 " fill-opacity="1" fill-rule="nonzero"/><path fill="#1e3665" d="M 364.839844 88.132812 L 364.402344 88.132812 L 342.695312 56.515625 L 333.363281 56.515625 L 333.363281 106.789062 L 343.992188 106.789062 L 343.992188 75.144531 L 344.363281 75.144531 L 366.242188 106.789062 L 375.421875 106.789062 L 375.421875 56.515625 L 364.839844 56.515625 Z M 364.839844 88.132812 " fill-opacity="1" fill-rule="nonzero"/><path fill="#1e3665" d="M 722.902344 79.023438 L 741.5625 56.515625 L 728.820312 56.515625 L 710.726562 78.679688 L 710.0625 78.679688 L 710.0625 56.515625 L 699.429688 56.515625 L 699.429688 106.789062 L 710.0625 106.789062 L 710.0625 92.5 L 715.292969 86.121094 L 729.0625 106.789062 L 741.785156 106.789062 Z M 722.902344 79.023438 " fill-opacity="1" fill-rule="nonzero"/><path fill="#1e3665" d="M 622.742188 90.636719 C 621.691406 93.078125 620.214844 94.925781 618.300781 96.183594 C 616.378906 97.449219 614.140625 98.078125 611.574219 98.078125 C 609 98.078125 606.757812 97.449219 604.84375 96.183594 C 602.925781 94.925781 601.4375 93.078125 600.371094 90.636719 C 599.328125 88.199219 598.800781 85.203125 598.800781 81.652344 C 598.800781 78.097656 599.328125 75.105469 600.371094 72.671875 C 601.4375 70.226562 602.925781 68.375 604.84375 67.121094 C 606.757812 65.859375 609 65.230469 611.574219 65.230469 C 614.140625 65.230469 616.378906 65.859375 618.300781 67.121094 C 620.214844 68.375 621.691406 70.226562 622.742188 72.671875 C 623.804688 75.105469 624.339844 78.097656 624.339844 81.652344 C 624.339844 85.203125 623.804688 88.199219 622.742188 90.636719 M 623.550781 58.871094 C 620 56.839844 616.007812 55.828125 611.574219 55.828125 C 607.097656 55.828125 603.09375 56.839844 599.542969 58.871094 C 595.988281 60.882812 593.179688 63.8125 591.117188 67.660156 C 589.054688 71.507812 588.027344 76.171875 588.027344 81.652344 C 588.027344 87.117188 589.054688 91.773438 591.117188 95.621094 C 593.179688 99.46875 595.988281 102.40625 599.542969 104.429688 C 603.09375 106.464844 607.097656 107.480469 611.574219 107.480469 C 616.007812 107.480469 620 106.472656 623.550781 104.457031 C 627.121094 102.433594 629.9375 99.492188 632 95.644531 C 634.078125 91.800781 635.113281 87.136719 635.113281 81.652344 C 635.113281 76.171875 634.078125 71.507812 632 67.660156 C 629.9375 63.8125 627.121094 60.882812 623.550781 58.871094 " fill-opacity="1" fill-rule="nonzero"/><path fill="#1e3665" d="M 659.15625 65.203125 L 666.324219 65.203125 C 668.371094 65.203125 670.0625 65.503906 671.40625 66.113281 C 672.765625 66.699219 673.773438 67.566406 674.429688 68.710938 C 675.097656 69.859375 675.433594 71.269531 675.433594 72.933594 C 675.433594 74.589844 675.097656 75.976562 674.429688 77.085938 C 673.773438 78.195312 672.773438 79.035156 671.433594 79.589844 C 670.085938 80.148438 668.402344 80.421875 666.375 80.421875 L 659.15625 80.421875 Z M 677.964844 87.054688 C 680.695312 85.777344 682.785156 83.945312 684.226562 81.554688 C 685.667969 79.148438 686.382812 76.277344 686.382812 72.933594 C 686.382812 69.613281 685.671875 66.726562 684.246094 64.269531 C 682.839844 61.800781 680.789062 59.890625 678.085938 58.550781 C 675.398438 57.191406 672.164062 56.515625 668.363281 56.515625 L 648.523438 56.515625 L 648.523438 106.789062 L 659.15625 106.789062 L 659.15625 88.96875 L 666.914062 88.96875 L 676.441406 106.789062 L 688.179688 106.789062 L 677.503906 87.25 C 677.65625 87.179688 677.8125 87.121094 677.964844 87.054688 " fill-opacity="1" fill-rule="nonzero"/><path fill="#ffffff" d="M 483.617188 91.519531 L 483.179688 91.519531 L 474.023438 56.511719 L 464.078125 56.511719 L 454.894531 91.449219 L 454.472656 91.449219 L 446.152344 56.511719 L 434.539062 56.511719 L 448.921875 106.792969 L 459.289062 106.792969 L 468.84375 73.917969 L 469.234375 73.917969 L 478.808594 106.792969 L 489.171875 106.792969 L 503.558594 56.511719 L 491.945312 56.511719 Z M 483.617188 91.519531 " fill-opacity="1" fill-rule="nonzero"/><path fill="#ffffff" d="M 557.234375 78.164062 L 556.738281 78.164062 L 545.277344 56.515625 L 533.367188 56.515625 L 551.707031 89.019531 L 551.707031 106.789062 L 562.269531 106.789062 L 562.269531 89.019531 L 580.609375 56.515625 L 568.699219 56.515625 Z M 557.234375 78.164062 " fill-opacity="1" fill-rule="nonzero"/><path fill="#ffffff" d="M 400.371094 86.023438 L 421.882812 86.023438 L 421.882812 77.253906 L 400.371094 77.253906 L 400.371094 65.273438 L 423.621094 65.273438 L 423.621094 56.515625 L 389.742188 56.515625 L 389.742188 106.789062 L 423.71875 106.789062 L 423.71875 98.03125 L 400.371094 98.03125 Z M 400.371094 86.023438 " fill-opacity="1" fill-rule="nonzero"/><path fill="#ffffff" d="M 364.839844 88.132812 L 364.402344 88.132812 L 342.695312 56.515625 L 333.363281 56.515625 L 333.363281 106.789062 L 343.992188 106.789062 L 343.992188 75.144531 L 344.363281 75.144531 L 366.242188 106.789062 L 375.421875 106.789062 L 375.421875 56.515625 L 364.839844 56.515625 Z M 364.839844 88.132812 " fill-opacity="1" fill-rule="nonzero"/><path fill="#ffffff" d="M 722.902344 79.023438 L 741.5625 56.515625 L 728.820312 56.515625 L 710.726562 78.679688 L 710.0625 78.679688 L 710.0625 56.515625 L 699.429688 56.515625 L 699.429688 106.789062 L 710.0625 106.789062 L 710.0625 92.5 L 715.292969 86.121094 L 729.0625 106.789062 L 741.785156 106.789062 Z M 722.902344 79.023438 " fill-opacity="1" fill-rule="nonzero"/><path fill="#ffffff" d="M 622.742188 90.636719 C 621.691406 93.078125 620.214844 94.925781 618.300781 96.183594 C 616.378906 97.449219 614.140625 98.078125 611.574219 98.078125 C 609 98.078125 606.757812 97.449219 604.84375 96.183594 C 602.925781 94.925781 601.4375 93.078125 600.371094 90.636719 C 599.328125 88.199219 598.800781 85.203125 598.800781 81.652344 C 598.800781 78.097656 599.328125 75.105469 600.371094 72.671875 C 601.4375 70.226562 602.925781 68.375 604.84375 67.121094 C 606.757812 65.859375 609 65.230469 611.574219 65.230469 C 614.140625 65.230469 616.378906 65.859375 618.300781 67.121094 C 620.214844 68.375 621.691406 70.226562 622.742188 72.671875 C 623.804688 75.105469 624.339844 78.097656 624.339844 81.652344 C 624.339844 85.203125 623.804688 88.199219 622.742188 90.636719 M 623.550781 58.871094 C 620 56.839844 616.007812 55.828125 611.574219 55.828125 C 607.097656 55.828125 603.09375 56.839844 599.542969 58.871094 C 595.988281 60.882812 593.179688 63.8125 591.117188 67.660156 C 589.054688 71.507812 588.027344 76.171875 588.027344 81.652344 C 588.027344 87.117188 589.054688 91.773438 591.117188 95.621094 C 593.179688 99.46875 595.988281 102.40625 599.542969 104.429688 C 603.09375 106.464844 607.097656 107.480469 611.574219 107.480469 C 616.007812 107.480469 620 106.472656 623.550781 104.457031 C 627.121094 102.433594 629.9375 99.492188 632 95.644531 C 634.078125 91.800781 635.113281 87.136719 635.113281 81.652344 C 635.113281 76.171875 634.078125 71.507812 632 67.660156 C 629.9375 63.8125 627.121094 60.882812 623.550781 58.871094 " fill-opacity="1" fill-rule="nonzero"/><path fill="#ffffff" d="M 659.15625 65.203125 L 666.324219 65.203125 C 668.371094 65.203125 670.0625 65.503906 671.40625 66.113281 C 672.765625 66.699219 673.773438 67.566406 674.429688 68.710938 C 675.097656 69.859375 675.433594 71.269531 675.433594 72.933594 C 675.433594 74.589844 675.097656 75.976562 674.429688 77.085938 C 673.773438 78.195312 672.773438 79.035156 671.433594 79.589844 C 670.085938 80.148438 668.402344 80.421875 666.375 80.421875 L 659.15625 80.421875 Z M 677.964844 87.054688 C 680.695312 85.777344 682.785156 83.945312 684.226562 81.554688 C 685.667969 79.148438 686.382812 76.277344 686.382812 72.933594 C 686.382812 69.613281 685.671875 66.726562 684.246094 64.269531 C 682.839844 61.800781 680.789062 59.890625 678.085938 58.550781 C 675.398438 57.191406 672.164062 56.515625 668.363281 56.515625 L 648.523438 56.515625 L 648.523438 106.789062 L 659.15625 106.789062 L 659.15625 88.96875 L 666.914062 88.96875 L 676.441406 106.789062 L 688.179688 106.789062 L 677.503906 87.25 C 677.65625 87.179688 677.8125 87.121094 677.964844 87.054688 " fill-opacity="1" fill-rule="nonzero"/><path fill="#1e3665" d="M 337.8125 154.269531 L 351.253906 154.269531 L 351.253906 148.792969 L 337.8125 148.792969 L 337.8125 141.300781 L 352.34375 141.300781 L 352.34375 135.824219 L 331.164062 135.824219 L 331.164062 167.246094 L 352.402344 167.246094 L 352.402344 161.773438 L 337.8125 161.773438 Z M 337.8125 154.269531 " fill-opacity="1" fill-rule="nonzero"/><path fill="#1e3665" d="M 449.089844 141.257812 L 453.570312 141.257812 C 454.847656 141.257812 455.910156 141.449219 456.746094 141.828125 C 457.597656 142.191406 458.226562 142.738281 458.632812 143.453125 C 459.054688 144.171875 459.265625 145.046875 459.265625 146.09375 C 459.265625 147.125 459.054688 147.988281 458.632812 148.683594 C 458.226562 149.378906 457.601562 149.898438 456.765625 150.246094 C 455.921875 150.597656 454.871094 150.769531 453.601562 150.769531 L 449.089844 150.769531 Z M 460.84375 154.914062 C 462.554688 154.113281 463.855469 152.972656 464.757812 151.476562 C 465.65625 149.972656 466.109375 148.179688 466.109375 146.09375 C 466.109375 144.015625 465.664062 142.210938 464.777344 140.675781 C 463.894531 139.132812 462.609375 137.941406 460.917969 137.097656 C 459.246094 136.246094 457.21875 135.828125 454.84375 135.828125 L 442.445312 135.828125 L 442.445312 167.25 L 449.089844 167.25 L 449.089844 156.113281 L 453.9375 156.113281 L 459.894531 167.25 L 467.234375 167.25 L 460.554688 155.027344 C 460.648438 154.984375 460.753906 154.957031 460.84375 154.914062 " fill-opacity="1" fill-rule="nonzero"/><path fill="#1e3665" d="M 415.953125 149.21875 C 415.546875 150.007812 414.917969 150.628906 414.078125 151.078125 C 413.25 151.515625 412.195312 151.738281 410.917969 151.738281 L 406.410156 151.738281 L 406.410156 141.257812 L 410.886719 141.257812 C 412.179688 141.257812 413.242188 141.476562 414.078125 141.917969 C 414.917969 142.347656 415.546875 142.957031 415.953125 143.746094 C 416.371094 144.519531 416.578125 145.429688 416.578125 146.476562 C 416.578125 147.511719 416.371094 148.425781 415.953125 149.21875 M 418.257812 137.191406 C 416.574219 136.277344 414.542969 135.824219 412.160156 135.824219 L 399.761719 135.824219 L 399.761719 167.246094 L 406.410156 167.246094 L 406.410156 157.0625 L 411.992188 157.0625 C 414.40625 157.0625 416.460938 156.621094 418.164062 155.726562 C 419.871094 154.835938 421.171875 153.589844 422.074219 152 C 422.976562 150.402344 423.425781 148.5625 423.425781 146.476562 C 423.425781 144.382812 422.980469 142.546875 422.09375 140.953125 C 421.210938 139.34375 419.933594 138.09375 418.257812 137.191406 " fill-opacity="1" fill-rule="nonzero"/><path fill="#1e3665" d="M 376.144531 156.941406 L 375.773438 156.941406 L 367.113281 135.824219 L 358.921875 135.824219 L 358.921875 167.25 L 365.367188 167.25 L 365.367188 146.722656 L 365.628906 146.722656 L 373.761719 167.097656 L 378.152344 167.097656 L 386.285156 146.796875 L 386.542969 146.796875 L 386.542969 167.25 L 392.988281 167.25 L 392.988281 135.824219 L 384.796875 135.824219 Z M 376.144531 156.941406 " fill-opacity="1" fill-rule="nonzero"/><path fill="#1e3665" d="M 429.035156 167.25 L 435.683594 167.25 L 435.683594 135.828125 L 429.035156 135.828125 Z M 429.035156 167.25 " fill-opacity="1" fill-rule="nonzero"/><path fill="#1e3665" d="M 478.746094 154.269531 L 492.191406 154.269531 L 492.191406 148.792969 L 478.746094 148.792969 L 478.746094 141.300781 L 493.277344 141.300781 L 493.277344 135.824219 L 472.097656 135.824219 L 472.097656 167.246094 L 493.335938 167.246094 L 493.335938 161.773438 L 478.746094 161.773438 Z M 478.746094 154.269531 " fill-opacity="1" fill-rule="nonzero"/><path fill="#1e3665" d="M 520.59375 154.898438 L 524.464844 143.007812 L 524.707031 143.007812 L 528.566406 154.898438 Z M 520.304688 135.824219 L 509.453125 167.25 L 516.570312 167.25 L 518.902344 160.085938 L 530.25 160.085938 L 532.578125 167.25 L 539.699219 167.25 L 528.863281 135.824219 Z M 520.304688 135.824219 " fill-opacity="1" fill-rule="nonzero"/><path fill="#1e3665" d="M 687.835938 156.941406 L 687.464844 156.941406 L 678.816406 135.824219 L 670.617188 135.824219 L 670.617188 167.25 L 677.0625 167.25 L 677.0625 146.722656 L 677.320312 146.722656 L 685.457031 167.097656 L 689.847656 167.097656 L 697.976562 146.796875 L 698.242188 146.796875 L 698.242188 167.25 L 704.6875 167.25 L 704.6875 135.824219 L 696.492188 135.824219 Z M 687.835938 156.941406 " fill-opacity="1" fill-rule="nonzero"/><path fill="#1e3665" d="M 731.699219 135.824219 L 724.53125 149.355469 L 724.222656 149.355469 L 717.058594 135.824219 L 709.613281 135.824219 L 721.082031 156.140625 L 721.082031 167.25 L 727.679688 167.25 L 727.679688 156.140625 L 739.144531 135.824219 Z M 731.699219 135.824219 " fill-opacity="1" fill-rule="nonzero"/><path fill="#1e3665" d="M 649.503906 154.269531 L 662.953125 154.269531 L 662.953125 148.792969 L 649.503906 148.792969 L 649.503906 141.300781 L 664.039062 141.300781 L 664.039062 135.824219 L 642.859375 135.824219 L 642.859375 167.246094 L 664.097656 167.246094 L 664.097656 161.773438 L 649.503906 161.773438 Z M 649.503906 154.269531 " fill-opacity="1" fill-rule="nonzero"/><path fill="#1e3665" d="M 628.984375 157.246094 C 628.308594 158.71875 627.296875 159.808594 625.945312 160.515625 C 624.609375 161.210938 622.957031 161.558594 620.988281 161.558594 L 616.765625 161.558594 L 616.765625 141.515625 L 621.007812 141.515625 C 622.96875 141.515625 624.621094 141.867188 625.960938 142.5625 C 627.300781 143.261719 628.308594 144.339844 628.984375 145.8125 C 629.667969 147.289062 630.015625 149.183594 630.015625 151.507812 C 630.015625 153.851562 629.667969 155.761719 628.984375 157.246094 M 629.519531 137.714844 C 627.242188 136.457031 624.519531 135.828125 621.355469 135.828125 L 610.125 135.828125 L 610.125 167.25 L 621.261719 167.25 C 624.460938 167.25 627.199219 166.621094 629.492188 165.363281 C 631.792969 164.101562 633.554688 162.296875 634.785156 159.949219 C 636.019531 157.59375 636.644531 154.78125 636.644531 151.507812 C 636.644531 148.246094 636.019531 145.441406 634.785156 143.097656 C 633.554688 140.753906 631.800781 138.960938 629.519531 137.714844 " fill-opacity="1" fill-rule="nonzero"/><path fill="#1e3665" d="M 553.292969 142.484375 C 554.5 141.679688 555.917969 141.273438 557.542969 141.273438 C 558.441406 141.273438 559.273438 141.402344 560.046875 141.65625 C 560.820312 141.910156 561.503906 142.28125 562.101562 142.761719 C 562.699219 143.242188 563.179688 143.824219 563.558594 144.511719 C 563.9375 145.1875 564.1875 145.957031 564.3125 146.828125 L 571.03125 146.828125 C 570.816406 145.003906 570.328125 143.390625 569.558594 141.980469 C 568.800781 140.5625 567.820312 139.378906 566.613281 138.402344 C 565.40625 137.421875 564.015625 136.675781 562.453125 136.164062 C 560.898438 135.652344 559.210938 135.398438 557.390625 135.398438 C 554.625 135.398438 552.140625 136.03125 549.929688 137.296875 C 547.722656 138.554688 545.972656 140.386719 544.679688 142.792969 C 543.394531 145.195312 542.75 148.113281 542.75 151.539062 C 542.75 154.957031 543.382812 157.863281 544.652344 160.269531 C 545.933594 162.667969 547.671875 164.507812 549.871094 165.777344 C 552.082031 167.046875 554.585938 167.679688 557.390625 167.679688 C 559.40625 167.679688 561.207031 167.378906 562.804688 166.773438 C 564.414062 166.160156 565.792969 165.332031 566.949219 164.289062 C 568.117188 163.234375 569.039062 162.039062 569.730469 160.714844 C 570.421875 159.375 570.859375 157.980469 571.03125 156.542969 L 564.3125 156.511719 C 564.15625 157.347656 563.882812 158.09375 563.480469 158.75 C 563.089844 159.402344 562.605469 159.960938 562.007812 160.425781 C 561.417969 160.871094 560.734375 161.214844 559.96875 161.453125 C 559.210938 161.6875 558.386719 161.804688 557.5 161.804688 C 555.90625 161.804688 554.515625 161.414062 553.308594 160.636719 C 552.101562 159.859375 551.15625 158.707031 550.484375 157.1875 C 549.820312 155.660156 549.484375 153.777344 549.484375 151.539062 C 549.484375 149.359375 549.820312 147.507812 550.484375 145.980469 C 551.148438 144.445312 552.085938 143.285156 553.292969 142.484375 " fill-opacity="1" fill-rule="nonzero"/><path fill="#1e3665" d="M 585.941406 154.898438 L 589.808594 143.007812 L 590.050781 143.007812 L 593.914062 154.898438 Z M 585.648438 135.824219 L 574.800781 167.25 L 581.917969 167.25 L 584.25 160.085938 L 595.59375 160.085938 L 597.925781 167.25 L 605.046875 167.25 L 594.210938 135.824219 Z M 585.648438 135.824219 " fill-opacity="1" fill-rule="nonzero"/><path fill="#ffffff" d="M 337.8125 154.269531 L 351.253906 154.269531 L 351.253906 148.792969 L 337.8125 148.792969 L 337.8125 141.300781 L 352.34375 141.300781 L 352.34375 135.824219 L 331.164062 135.824219 L 331.164062 167.246094 L 352.402344 167.246094 L 352.402344 161.773438 L 337.8125 161.773438 Z M 337.8125 154.269531 " fill-opacity="1" fill-rule="nonzero"/><path fill="#ffffff" d="M 449.089844 141.257812 L 453.570312 141.257812 C 454.847656 141.257812 455.910156 141.449219 456.746094 141.828125 C 457.597656 142.191406 458.226562 142.738281 458.632812 143.453125 C 459.054688 144.171875 459.265625 145.046875 459.265625 146.09375 C 459.265625 147.125 459.054688 147.988281 458.632812 148.683594 C 458.226562 149.378906 457.601562 149.898438 456.765625 150.246094 C 455.921875 150.597656 454.871094 150.769531 453.601562 150.769531 L 449.089844 150.769531 Z M 460.84375 154.914062 C 462.554688 154.113281 463.855469 152.972656 464.757812 151.476562 C 465.65625 149.972656 466.109375 148.179688 466.109375 146.09375 C 466.109375 144.015625 465.664062 142.210938 464.777344 140.675781 C 463.894531 139.132812 462.609375 137.941406 460.917969 137.097656 C 459.246094 136.246094 457.21875 135.828125 454.84375 135.828125 L 442.445312 135.828125 L 442.445312 167.25 L 449.089844 167.25 L 449.089844 156.113281 L 453.9375 156.113281 L 459.894531 167.25 L 467.234375 167.25 L 460.554688 155.027344 C 460.648438 154.984375 460.753906 154.957031 460.84375 154.914062 " fill-opacity="1" fill-rule="nonzero"/><path fill="#ffffff" d="M 415.953125 149.21875 C 415.546875 150.007812 414.917969 150.628906 414.078125 151.078125 C 413.25 151.515625 412.195312 151.738281 410.917969 151.738281 L 406.410156 151.738281 L 406.410156 141.257812 L 410.886719 141.257812 C 412.179688 141.257812 413.242188 141.476562 414.078125 141.917969 C 414.917969 142.347656 415.546875 142.957031 415.953125 143.746094 C 416.371094 144.519531 416.578125 145.429688 416.578125 146.476562 C 416.578125 147.511719 416.371094 148.425781 415.953125 149.21875 M 418.257812 137.191406 C 416.574219 136.277344 414.542969 135.824219 412.160156 135.824219 L 399.761719 135.824219 L 399.761719 167.246094 L 406.410156 167.246094 L 406.410156 157.0625 L 411.992188 157.0625 C 414.40625 157.0625 416.460938 156.621094 418.164062 155.726562 C 419.871094 154.835938 421.171875 153.589844 422.074219 152 C 422.976562 150.402344 423.425781 148.5625 423.425781 146.476562 C 423.425781 144.382812 422.980469 142.546875 422.09375 140.953125 C 421.210938 139.34375 419.933594 138.09375 418.257812 137.191406 " fill-opacity="1" fill-rule="nonzero"/><path fill="#ffffff" d="M 376.144531 156.941406 L 375.773438 156.941406 L 367.113281 135.824219 L 358.921875 135.824219 L 358.921875 167.25 L 365.367188 167.25 L 365.367188 146.722656 L 365.628906 146.722656 L 373.761719 167.097656 L 378.152344 167.097656 L 386.285156 146.796875 L 386.542969 146.796875 L 386.542969 167.25 L 392.988281 167.25 L 392.988281 135.824219 L 384.796875 135.824219 Z M 376.144531 156.941406 " fill-opacity="1" fill-rule="nonzero"/><path fill="#ffffff" d="M 429.035156 167.25 L 435.683594 167.25 L 435.683594 135.828125 L 429.035156 135.828125 Z M 429.035156 167.25 " fill-opacity="1" fill-rule="nonzero"/><path fill="#ffffff" d="M 478.746094 154.269531 L 492.191406 154.269531 L 492.191406 148.792969 L 478.746094 148.792969 L 478.746094 141.300781 L 493.277344 141.300781 L 493.277344 135.824219 L 472.097656 135.824219 L 472.097656 167.246094 L 493.335938 167.246094 L 493.335938 161.773438 L 478.746094 161.773438 Z M 478.746094 154.269531 " fill-opacity="1" fill-rule="nonzero"/><path fill="#ffffff" d="M 520.59375 154.898438 L 524.464844 143.007812 L 524.707031 143.007812 L 528.566406 154.898438 Z M 520.304688 135.824219 L 509.453125 167.25 L 516.570312 167.25 L 518.902344 160.085938 L 530.25 160.085938 L 532.578125 167.25 L 539.699219 167.25 L 528.863281 135.824219 Z M 520.304688 135.824219 " fill-opacity="1" fill-rule="nonzero"/><path fill="#ffffff" d="M 687.835938 156.941406 L 687.464844 156.941406 L 678.816406 135.824219 L 670.617188 135.824219 L 670.617188 167.25 L 677.0625 167.25 L 677.0625 146.722656 L 677.320312 146.722656 L 685.457031 167.097656 L 689.847656 167.097656 L 697.976562 146.796875 L 698.242188 146.796875 L 698.242188 167.25 L 704.6875 167.25 L 704.6875 135.824219 L 696.492188 135.824219 Z M 687.835938 156.941406 " fill-opacity="1" fill-rule="nonzero"/><path fill="#ffffff" d="M 731.699219 135.824219 L 724.53125 149.355469 L 724.222656 149.355469 L 717.058594 135.824219 L 709.613281 135.824219 L 721.082031 156.140625 L 721.082031 167.25 L 727.679688 167.25 L 727.679688 156.140625 L 739.144531 135.824219 Z M 731.699219 135.824219 " fill-opacity="1" fill-rule="nonzero"/><path fill="#ffffff" d="M 649.503906 154.269531 L 662.953125 154.269531 L 662.953125 148.792969 L 649.503906 148.792969 L 649.503906 141.300781 L 664.039062 141.300781 L 664.039062 135.824219 L 642.859375 135.824219 L 642.859375 167.246094 L 664.097656 167.246094 L 664.097656 161.773438 L 649.503906 161.773438 Z M 649.503906 154.269531 " fill-opacity="1" fill-rule="nonzero"/><path fill="#ffffff" d="M 628.984375 157.246094 C 628.308594 158.71875 627.296875 159.808594 625.945312 160.515625 C 624.609375 161.210938 622.957031 161.558594 620.988281 161.558594 L 616.765625 161.558594 L 616.765625 141.515625 L 621.007812 141.515625 C 622.96875 141.515625 624.621094 141.867188 625.960938 142.5625 C 627.300781 143.261719 628.308594 144.339844 628.984375 145.8125 C 629.667969 147.289062 630.015625 149.183594 630.015625 151.507812 C 630.015625 153.851562 629.667969 155.761719 628.984375 157.246094 M 629.519531 137.714844 C 627.242188 136.457031 624.519531 135.828125 621.355469 135.828125 L 610.125 135.828125 L 610.125 167.25 L 621.261719 167.25 C 624.460938 167.25 627.199219 166.621094 629.492188 165.363281 C 631.792969 164.101562 633.554688 162.296875 634.785156 159.949219 C 636.019531 157.59375 636.644531 154.78125 636.644531 151.507812 C 636.644531 148.246094 636.019531 145.441406 634.785156 143.097656 C 633.554688 140.753906 631.800781 138.960938 629.519531 137.714844 " fill-opacity="1" fill-rule="nonzero"/><path fill="#ffffff" d="M 553.292969 142.484375 C 554.5 141.679688 555.917969 141.273438 557.542969 141.273438 C 558.441406 141.273438 559.273438 141.402344 560.046875 141.65625 C 560.820312 141.910156 561.503906 142.28125 562.101562 142.761719 C 562.699219 143.242188 563.179688 143.824219 563.558594 144.511719 C 563.9375 145.1875 564.1875 145.957031 564.3125 146.828125 L 571.03125 146.828125 C 570.816406 145.003906 570.328125 143.390625 569.558594 141.980469 C 568.800781 140.5625 567.820312 139.378906 566.613281 138.402344 C 565.40625 137.421875 564.015625 136.675781 562.453125 136.164062 C 560.898438 135.652344 559.210938 135.398438 557.390625 135.398438 C 554.625 135.398438 552.140625 136.03125 549.929688 137.296875 C 547.722656 138.554688 545.972656 140.386719 544.679688 142.792969 C 543.394531 145.195312 542.75 148.113281 542.75 151.539062 C 542.75 154.957031 543.382812 157.863281 544.652344 160.269531 C 545.933594 162.667969 547.671875 164.507812 549.871094 165.777344 C 552.082031 167.046875 554.585938 167.679688 557.390625 167.679688 C 559.40625 167.679688 561.207031 167.378906 562.804688 166.773438 C 564.414062 166.160156 565.792969 165.332031 566.949219 164.289062 C 568.117188 163.234375 569.039062 162.039062 569.730469 160.714844 C 570.421875 159.375 570.859375 157.980469 571.03125 156.542969 L 564.3125 156.511719 C 564.15625 157.347656 563.882812 158.09375 563.480469 158.75 C 563.089844 159.402344 562.605469 159.960938 562.007812 160.425781 C 561.417969 160.871094 560.734375 161.214844 559.96875 161.453125 C 559.210938 161.6875 558.386719 161.804688 557.5 161.804688 C 555.90625 161.804688 554.515625 161.414062 553.308594 160.636719 C 552.101562 159.859375 551.15625 158.707031 550.484375 157.1875 C 549.820312 155.660156 549.484375 153.777344 549.484375 151.539062 C 549.484375 149.359375 549.820312 147.507812 550.484375 145.980469 C 551.148438 144.445312 552.085938 143.285156 553.292969 142.484375 " fill-opacity="1" fill-rule="nonzero"/><path fill="#ffffff" d="M 585.941406 154.898438 L 589.808594 143.007812 L 590.050781 143.007812 L 593.914062 154.898438 Z M 585.648438 135.824219 L 574.800781 167.25 L 581.917969 167.25 L 584.25 160.085938 L 595.59375 160.085938 L 597.925781 167.25 L 605.046875 167.25 L 594.210938 135.824219 Z M 585.648438 135.824219 " fill-opacity="1" fill-rule="nonzero"/><path fill="#ffffff" d="M 337.703125 221.019531 L 339.53125 227.011719 L 339.601562 227.011719 L 341.429688 221.019531 L 343.644531 221.019531 L 340.882812 229.195312 L 338.25 229.195312 L 335.488281 221.019531 Z M 354.265625 229.195312 L 352.289062 229.195312 L 352.289062 221.019531 L 354.265625 221.019531 Z M 370.699219 223.984375 L 368.703125 223.984375 C 368.671875 223.777344 368.617188 223.59375 368.535156 223.429688 C 368.453125 223.261719 368.34375 223.121094 368.207031 223.003906 C 368.070312 222.890625 367.910156 222.800781 367.722656 222.734375 C 367.539062 222.671875 367.335938 222.640625 367.109375 222.640625 C 366.71875 222.640625 366.371094 222.738281 366.085938 222.929688 C 365.800781 223.128906 365.582031 223.40625 365.429688 223.777344 C 365.273438 224.144531 365.199219 224.585938 365.199219 225.109375 C 365.199219 225.652344 365.273438 226.109375 365.429688 226.472656 C 365.585938 226.839844 365.804688 227.117188 366.089844 227.304688 C 366.375 227.484375 366.714844 227.578125 367.101562 227.578125 C 367.316406 227.578125 367.519531 227.550781 367.695312 227.496094 C 367.875 227.4375 368.039062 227.359375 368.167969 227.253906 C 368.308594 227.140625 368.425781 227.011719 368.507812 226.855469 C 368.601562 226.699219 368.664062 226.519531 368.703125 226.324219 L 370.699219 226.332031 C 370.664062 226.699219 370.558594 227.054688 370.378906 227.40625 C 370.207031 227.757812 369.96875 228.082031 369.664062 228.371094 C 369.367188 228.660156 368.996094 228.890625 368.554688 229.054688 C 368.121094 229.226562 367.621094 229.3125 367.0625 229.3125 C 366.320312 229.3125 365.65625 229.148438 365.070312 228.824219 C 364.492188 228.5 364.027344 228.023438 363.691406 227.398438 C 363.351562 226.765625 363.179688 226.007812 363.179688 225.109375 C 363.179688 224.210938 363.355469 223.445312 363.695312 222.820312 C 364.039062 222.195312 364.507812 221.71875 365.089844 221.390625 C 365.675781 221.070312 366.335938 220.90625 367.0625 220.90625 C 367.554688 220.90625 368.011719 220.976562 368.4375 221.117188 C 368.859375 221.246094 369.230469 221.453125 369.542969 221.714844 C 369.863281 221.972656 370.125 222.296875 370.324219 222.675781 C 370.523438 223.058594 370.648438 223.492188 370.699219 223.984375 M 379.324219 222.625 L 379.324219 221.019531 L 386.238281 221.019531 L 386.238281 222.625 L 383.757812 222.625 L 383.757812 229.195312 L 381.808594 229.195312 L 381.808594 222.625 Z M 402.316406 225.109375 C 402.316406 226.011719 402.140625 226.773438 401.800781 227.402344 C 401.449219 228.027344 400.984375 228.503906 400.390625 228.824219 C 399.800781 229.148438 399.144531 229.3125 398.410156 229.3125 C 397.675781 229.3125 397.015625 229.144531 396.421875 228.820312 C 395.835938 228.492188 395.367188 228.019531 395.023438 227.398438 C 394.679688 226.765625 394.507812 226.007812 394.507812 225.109375 C 394.507812 224.210938 394.679688 223.445312 395.023438 222.820312 C 395.367188 222.195312 395.835938 221.71875 396.421875 221.390625 C 397.015625 221.070312 397.675781 220.90625 398.410156 220.90625 C 399.144531 220.90625 399.800781 221.070312 400.390625 221.390625 C 400.984375 221.71875 401.449219 222.195312 401.800781 222.820312 C 402.140625 223.445312 402.316406 224.210938 402.316406 225.109375 M 400.292969 225.109375 C 400.292969 224.574219 400.222656 224.125 400.066406 223.761719 C 399.917969 223.390625 399.703125 223.113281 399.425781 222.921875 C 399.144531 222.734375 398.804688 222.640625 398.410156 222.640625 C 398.019531 222.640625 397.679688 222.734375 397.398438 222.921875 C 397.117188 223.113281 396.898438 223.390625 396.75 223.761719 C 396.597656 224.125 396.527344 224.574219 396.527344 225.109375 C 396.527344 225.640625 396.597656 226.089844 396.75 226.460938 C 396.898438 226.828125 397.117188 227.109375 397.398438 227.292969 C 397.679688 227.484375 398.019531 227.578125 398.410156 227.578125 C 398.804688 227.578125 399.144531 227.484375 399.425781 227.292969 C 399.703125 227.109375 399.917969 226.828125 400.066406 226.460938 C 400.222656 226.089844 400.292969 225.640625 400.292969 225.109375 M 411.238281 229.195312 L 411.238281 221.019531 L 414.613281 221.019531 C 415.226562 221.019531 415.757812 221.128906 416.203125 221.347656 C 416.648438 221.566406 416.992188 221.882812 417.238281 222.292969 C 417.480469 222.703125 417.601562 223.1875 417.601562 223.742188 C 417.601562 224.3125 417.476562 224.789062 417.226562 225.191406 C 416.980469 225.582031 416.628906 225.882812 416.171875 226.089844 C 415.722656 226.296875 415.179688 226.398438 414.554688 226.398438 L 412.417969 226.398438 L 412.417969 224.839844 L 414.1875 224.839844 C 414.488281 224.839844 414.734375 224.804688 414.933594 224.722656 C 415.136719 224.644531 415.289062 224.53125 415.398438 224.367188 C 415.5 224.207031 415.550781 224 415.550781 223.742188 C 415.550781 223.492188 415.5 223.28125 415.398438 223.117188 C 415.289062 222.949219 415.136719 222.824219 414.933594 222.738281 C 414.734375 222.65625 414.480469 222.613281 414.1875 222.613281 L 413.214844 222.613281 L 413.214844 229.195312 Z M 415.84375 225.457031 L 417.878906 229.195312 L 415.726562 229.195312 L 413.722656 225.457031 Z M 425.679688 221.019531 L 427.882812 221.019531 L 429.621094 224.445312 L 429.691406 224.445312 L 431.421875 221.019531 L 433.628906 221.019531 L 430.632812 226.464844 L 430.632812 229.195312 L 428.671875 229.195312 L 428.671875 226.464844 Z M 455.425781 229.195312 L 452.398438 229.195312 L 452.398438 221.019531 L 455.421875 221.019531 C 456.253906 221.019531 456.972656 221.179688 457.578125 221.511719 C 458.175781 221.835938 458.644531 222.300781 458.972656 222.917969 C 459.300781 223.527344 459.46875 224.257812 459.46875 225.105469 C 459.46875 225.957031 459.300781 226.691406 458.972656 227.304688 C 458.648438 227.914062 458.179688 228.386719 457.582031 228.714844 C 456.976562 229.035156 456.257812 229.195312 455.425781 229.195312 M 454.378906 227.515625 L 455.351562 227.515625 C 455.804688 227.515625 456.191406 227.4375 456.511719 227.28125 C 456.832031 227.125 457.074219 226.871094 457.234375 226.519531 C 457.402344 226.164062 457.484375 225.691406 457.484375 225.105469 C 457.484375 224.515625 457.402344 224.050781 457.234375 223.699219 C 457.070312 223.347656 456.828125 223.097656 456.503906 222.941406 C 456.183594 222.78125 455.789062 222.707031 455.324219 222.707031 L 454.378906 222.707031 Z M 468.382812 229.195312 L 468.382812 221.019531 L 474.089844 221.019531 L 474.089844 222.625 L 470.359375 222.625 L 470.359375 224.304688 L 473.796875 224.304688 L 473.796875 225.914062 L 470.359375 225.914062 L 470.359375 227.597656 L 474.089844 227.597656 L 474.089844 229.195312 Z M 483.089844 221.019531 L 485.542969 221.019531 L 487.617188 226.082031 L 487.710938 226.082031 L 489.789062 221.019531 L 492.238281 221.019531 L 492.238281 229.195312 L 490.3125 229.195312 L 490.3125 224.175781 L 490.246094 224.175781 L 488.277344 229.144531 L 487.046875 229.144531 L 485.082031 224.148438 L 485.011719 224.148438 L 485.011719 229.195312 L 483.089844 229.195312 Z M 503.003906 229.195312 L 500.878906 229.195312 L 503.644531 221.019531 L 506.273438 221.019531 L 509.035156 229.195312 L 506.90625 229.195312 L 504.984375 223.082031 L 504.921875 223.082031 Z M 502.71875 225.980469 L 507.164062 225.980469 L 507.164062 227.484375 L 502.71875 227.484375 Z M 524.644531 221.019531 L 524.644531 229.195312 L 522.964844 229.195312 L 519.710938 224.480469 L 519.65625 224.480469 L 519.65625 229.195312 L 517.679688 229.195312 L 517.679688 221.019531 L 519.382812 221.019531 L 522.597656 225.730469 L 522.667969 225.730469 L 522.667969 221.019531 Z M 536.671875 229.195312 L 533.652344 229.195312 L 533.652344 221.019531 L 536.667969 221.019531 C 537.503906 221.019531 538.21875 221.179688 538.824219 221.511719 C 539.425781 221.835938 539.890625 222.300781 540.21875 222.917969 C 540.546875 223.527344 540.714844 224.257812 540.714844 225.105469 C 540.714844 225.957031 540.546875 226.691406 540.21875 227.304688 C 539.894531 227.914062 539.433594 228.386719 538.828125 228.714844 C 538.222656 229.035156 537.503906 229.195312 536.671875 229.195312 M 535.625 227.515625 L 536.597656 227.515625 C 537.054688 227.515625 537.441406 227.4375 537.757812 227.28125 C 538.078125 227.125 538.320312 226.871094 538.484375 226.519531 C 538.648438 226.164062 538.730469 225.691406 538.730469 225.105469 C 538.730469 224.515625 538.648438 224.050781 538.484375 223.699219 C 538.316406 223.347656 538.074219 223.097656 537.75 222.941406 C 537.429688 222.78125 537.039062 222.707031 536.570312 222.707031 L 535.625 222.707031 Z M 554.050781 223.472656 C 554.027344 223.179688 553.90625 222.953125 553.699219 222.785156 C 553.488281 222.625 553.195312 222.539062 552.808594 222.539062 C 552.550781 222.539062 552.339844 222.574219 552.164062 222.640625 C 551.996094 222.707031 551.867188 222.800781 551.78125 222.917969 C 551.695312 223.035156 551.65625 223.164062 551.648438 223.3125 C 551.644531 223.4375 551.671875 223.542969 551.722656 223.636719 C 551.777344 223.730469 551.859375 223.8125 551.964844 223.882812 C 552.070312 223.953125 552.199219 224.015625 552.347656 224.066406 C 552.496094 224.121094 552.664062 224.167969 552.851562 224.207031 L 553.554688 224.367188 C 553.957031 224.457031 554.316406 224.570312 554.625 224.71875 C 554.9375 224.863281 555.195312 225.035156 555.410156 225.242188 C 555.621094 225.441406 555.785156 225.675781 555.890625 225.9375 C 555.996094 226.203125 556.054688 226.5 556.054688 226.828125 C 556.054688 227.347656 555.925781 227.789062 555.667969 228.15625 C 555.410156 228.527344 555.039062 228.8125 554.554688 229.003906 C 554.066406 229.203125 553.484375 229.300781 552.808594 229.300781 C 552.121094 229.300781 551.523438 229.199219 551.019531 229 C 550.507812 228.792969 550.113281 228.480469 549.828125 228.0625 C 549.546875 227.644531 549.402344 227.117188 549.394531 226.472656 L 551.289062 226.472656 C 551.300781 226.738281 551.375 226.957031 551.496094 227.132812 C 551.625 227.3125 551.792969 227.445312 552.015625 227.53125 C 552.238281 227.625 552.492188 227.667969 552.78125 227.667969 C 553.050781 227.667969 553.277344 227.636719 553.460938 227.5625 C 553.652344 227.492188 553.796875 227.390625 553.898438 227.261719 C 553.996094 227.132812 554.050781 226.988281 554.050781 226.824219 C 554.050781 226.667969 554 226.539062 553.90625 226.425781 C 553.8125 226.316406 553.671875 226.21875 553.476562 226.136719 C 553.289062 226.058594 553.042969 225.980469 552.742188 225.914062 L 551.886719 225.710938 C 551.175781 225.546875 550.625 225.289062 550.214844 224.921875 C 549.808594 224.558594 549.601562 224.070312 549.605469 223.449219 C 549.601562 222.941406 549.738281 222.496094 550.015625 222.121094 C 550.289062 221.738281 550.671875 221.4375 551.152344 221.226562 C 551.636719 221.011719 552.191406 220.90625 552.8125 220.90625 C 553.445312 220.90625 553.992188 221.011719 554.460938 221.230469 C 554.929688 221.441406 555.292969 221.746094 555.554688 222.128906 C 555.808594 222.515625 555.941406 222.964844 555.945312 223.472656 Z M 575 229.195312 L 575 221.019531 L 578.378906 221.019531 C 578.996094 221.019531 579.519531 221.136719 579.96875 221.378906 C 580.414062 221.613281 580.761719 221.945312 581.003906 222.375 C 581.246094 222.796875 581.367188 223.289062 581.367188 223.855469 C 581.367188 224.414062 581.246094 224.910156 580.992188 225.332031 C 580.75 225.75 580.398438 226.078125 579.941406 226.3125 C 579.488281 226.542969 578.949219 226.660156 578.320312 226.660156 L 576.234375 226.660156 L 576.234375 225.101562 L 577.953125 225.101562 C 578.253906 225.101562 578.503906 225.050781 578.703125 224.941406 C 578.902344 224.839844 579.058594 224.695312 579.160156 224.511719 C 579.261719 224.320312 579.3125 224.105469 579.3125 223.855469 C 579.3125 223.597656 579.261719 223.382812 579.160156 223.195312 C 579.058594 223.011719 578.902344 222.867188 578.703125 222.765625 C 578.5 222.664062 578.25 222.613281 577.953125 222.613281 L 576.976562 222.613281 L 576.976562 229.195312 Z M 590.105469 229.195312 L 590.105469 221.019531 L 593.480469 221.019531 C 594.097656 221.019531 594.625 221.128906 595.070312 221.347656 C 595.515625 221.566406 595.859375 221.882812 596.101562 222.292969 C 596.34375 222.703125 596.46875 223.1875 596.46875 223.742188 C 596.46875 224.3125 596.34375 224.789062 596.09375 225.191406 C 595.847656 225.582031 595.492188 225.882812 595.042969 226.089844 C 594.585938 226.296875 594.046875 226.398438 593.421875 226.398438 L 591.285156 226.398438 L 591.285156 224.839844 L 593.058594 224.839844 C 593.351562 224.839844 593.605469 224.804688 593.804688 224.722656 C 594.003906 224.644531 594.15625 224.53125 594.261719 224.367188 C 594.367188 224.207031 594.417969 224 594.417969 223.742188 C 594.417969 223.492188 594.367188 223.28125 594.261719 223.117188 C 594.15625 222.949219 594.003906 222.824219 593.804688 222.738281 C 593.597656 222.65625 593.347656 222.613281 593.058594 222.613281 L 592.078125 222.613281 L 592.078125 229.195312 Z M 594.710938 225.457031 L 596.75 229.195312 L 594.589844 229.195312 L 592.59375 225.457031 Z M 605.316406 229.195312 L 605.316406 221.019531 L 611.023438 221.019531 L 611.023438 222.625 L 607.289062 222.625 L 607.289062 224.304688 L 610.730469 224.304688 L 610.730469 225.914062 L 607.289062 225.914062 L 607.289062 227.597656 L 611.023438 227.597656 L 611.023438 229.195312 Z M 620.023438 229.195312 L 620.023438 221.019531 L 623.398438 221.019531 C 624.015625 221.019531 624.542969 221.136719 624.992188 221.378906 C 625.4375 221.613281 625.777344 221.945312 626.023438 222.375 C 626.265625 222.796875 626.386719 223.289062 626.386719 223.855469 C 626.386719 224.414062 626.265625 224.910156 626.011719 225.332031 C 625.769531 225.75 625.421875 226.078125 624.964844 226.3125 C 624.511719 226.542969 623.96875 226.660156 623.34375 226.660156 L 621.257812 226.660156 L 621.257812 225.101562 L 622.976562 225.101562 C 623.277344 225.101562 623.523438 225.050781 623.722656 224.941406 C 623.921875 224.839844 624.074219 224.695312 624.183594 224.511719 C 624.285156 224.320312 624.335938 224.105469 624.335938 223.855469 C 624.335938 223.597656 624.285156 223.382812 624.183594 223.195312 C 624.074219 223.011719 623.921875 222.867188 623.722656 222.765625 C 623.519531 222.664062 623.269531 222.613281 622.976562 222.613281 L 622 222.613281 L 622 229.195312 Z M 635.90625 229.195312 L 633.78125 229.195312 L 636.539062 221.019531 L 639.175781 221.019531 L 641.9375 229.195312 L 639.808594 229.195312 L 637.886719 223.082031 L 637.820312 223.082031 Z M 635.621094 225.980469 L 640.066406 225.980469 L 640.066406 227.484375 L 635.621094 227.484375 Z M 650.582031 229.195312 L 650.582031 221.019531 L 653.957031 221.019531 C 654.574219 221.019531 655.101562 221.128906 655.546875 221.347656 C 655.992188 221.566406 656.335938 221.882812 656.578125 222.292969 C 656.820312 222.703125 656.945312 223.1875 656.945312 223.742188 C 656.945312 224.3125 656.820312 224.789062 656.570312 225.191406 C 656.324219 225.582031 655.96875 225.882812 655.519531 226.089844 C 655.0625 226.296875 654.523438 226.398438 653.898438 226.398438 L 651.761719 226.398438 L 651.761719 224.839844 L 653.535156 224.839844 C 653.828125 224.839844 654.078125 224.804688 654.28125 224.722656 C 654.480469 224.644531 654.632812 224.53125 654.738281 224.367188 C 654.84375 224.207031 654.894531 224 654.894531 223.742188 C 654.894531 223.492188 654.84375 223.28125 654.738281 223.117188 C 654.632812 222.949219 654.480469 222.824219 654.28125 222.738281 C 654.074219 222.65625 653.824219 222.613281 653.535156 222.613281 L 652.554688 222.613281 L 652.554688 229.195312 Z M 655.1875 225.457031 L 657.226562 229.195312 L 655.066406 229.195312 L 653.070312 225.457031 Z M 667.5625 229.195312 L 665.433594 229.195312 L 668.195312 221.019531 L 670.832031 221.019531 L 673.589844 229.195312 L 671.464844 229.195312 L 669.546875 223.082031 L 669.480469 223.082031 Z M 667.28125 225.980469 L 671.726562 225.980469 L 671.726562 227.484375 L 667.28125 227.484375 Z M 680.945312 222.625 L 680.945312 221.019531 L 687.863281 221.019531 L 687.863281 222.625 L 685.382812 222.625 L 685.382812 229.195312 L 683.433594 229.195312 L 683.433594 222.625 Z M 698.566406 229.195312 L 696.589844 229.195312 L 696.589844 221.019531 L 698.566406 221.019531 Z M 715.296875 225.109375 C 715.296875 226.011719 715.121094 226.773438 714.773438 227.402344 C 714.429688 228.027344 713.964844 228.503906 713.367188 228.824219 C 712.78125 229.148438 712.117188 229.3125 711.390625 229.3125 C 710.652344 229.3125 709.988281 229.144531 709.40625 228.820312 C 708.8125 228.492188 708.34375 228.019531 708 227.398438 C 707.65625 226.765625 707.484375 226.007812 707.484375 225.109375 C 707.484375 224.210938 707.65625 223.445312 708 222.820312 C 708.34375 222.195312 708.8125 221.71875 709.40625 221.390625 C 709.988281 221.070312 710.652344 220.90625 711.390625 220.90625 C 712.117188 220.90625 712.78125 221.070312 713.367188 221.390625 C 713.964844 221.71875 714.429688 222.195312 714.773438 222.820312 C 715.121094 223.445312 715.296875 224.210938 715.296875 225.109375 M 713.273438 225.109375 C 713.273438 224.574219 713.199219 224.125 713.042969 223.761719 C 712.894531 223.390625 712.679688 223.113281 712.398438 222.921875 C 712.117188 222.734375 711.785156 222.640625 711.390625 222.640625 C 710.996094 222.640625 710.660156 222.734375 710.375 222.921875 C 710.09375 223.113281 709.878906 223.390625 709.722656 223.761719 C 709.574219 224.125 709.503906 224.574219 709.503906 225.109375 C 709.503906 225.640625 709.574219 226.089844 709.722656 226.460938 C 709.878906 226.828125 710.09375 227.109375 710.375 227.292969 C 710.660156 227.484375 710.996094 227.578125 711.390625 227.578125 C 711.785156 227.578125 712.117188 227.484375 712.398438 227.292969 C 712.679688 227.109375 712.894531 226.828125 713.042969 226.460938 C 713.199219 226.089844 713.273438 225.640625 713.273438 225.109375 M 731.175781 221.019531 L 731.175781 229.195312 L 729.5 229.195312 L 726.242188 224.480469 L 726.191406 224.480469 L 726.191406 229.195312 L 724.210938 229.195312 L 724.210938 221.019531 L 725.914062 221.019531 L 729.136719 225.730469 L 729.203125 225.730469 L 729.203125 221.019531 Z M 731.175781 221.019531 " fill-opacity="1" fill-rule="nonzero"/><path fill="#ffffff" d="M 333.375 198.097656 L 732.179688 198.097656 L 732.179688 195.625 L 333.375 195.625 Z M 333.375 198.097656 " fill-opacity="1" fill-rule="nonzero"/></svg>